REM MD5 33520b45ad390dd76ec3e596a7023f2f
FILE "Black Dawn (Japan).bin" BINARY
  TRACK 01 MODE2/2352
    INDEX 01 00:00:00
  TRACK 02 AUDIO
    INDEX 00 21:38:63
    INDEX 01 21:40:63
  TRACK 03 AUDIO
    INDEX 00 23:48:67
    INDEX 01 23:50:67
  TRACK 04 AUDIO
    INDEX 00 25:59:19
    INDEX 01 26:01:19
  TRACK 05 AUDIO
    INDEX 00 28:14:74
    INDEX 01 28:16:74
  TRACK 06 AUDIO
    INDEX 00 30:00:46
    INDEX 01 30:02:46
  TRACK 07 AUDIO
    INDEX 00 32:05:46
    INDEX 01 32:07:46
  TRACK 08 AUDIO
    INDEX 00 34:14:53
    INDEX 01 34:16:53
  TRACK 09 AUDIO
    INDEX 00 36:10:53
    INDEX 01 36:12:53
  TRACK 10 AUDIO
    INDEX 00 37:13:45
    INDEX 01 37:15:45
  TRACK 11 AUDIO
    INDEX 00 39:15:30
    INDEX 01 39:17:30
  TRACK 12 AUDIO
    INDEX 00 41:22:07
    INDEX 01 41:24:07
  TRACK 13 AUDIO
    INDEX 00 41:43:73
    INDEX 01 41:45:73
  TRACK 14 AUDIO
    INDEX 00 41:55:64
    INDEX 01 41:57:64
  TRACK 15 AUDIO
    INDEX 00 42:04:36
    INDEX 01 42:06:36
  TRACK 16 AUDIO
    INDEX 00 42:14:30
    INDEX 01 42:16:30
  TRACK 17 AUDIO
    INDEX 00 42:29:57
    INDEX 01 42:31:57
  TRACK 18 AUDIO
    INDEX 00 42:43:72
    INDEX 01 42:45:72
  TRACK 19 AUDIO
    INDEX 00 42:50:48
    INDEX 01 42:52:48
  TRACK 20 AUDIO
    INDEX 00 43:02:46
    INDEX 01 43:04:46
  TRACK 21 AUDIO
    INDEX 00 43:09:39
    INDEX 01 43:11:39
  TRACK 22 AUDIO
    INDEX 00 43:31:03
    INDEX 01 43:33:03
  TRACK 23 AUDIO
    INDEX 00 43:45:13
    INDEX 01 43:47:13
  TRACK 24 AUDIO
    INDEX 00 43:54:43
    INDEX 01 43:56:43
  TRACK 25 AUDIO
    INDEX 00 44:06:04
    INDEX 01 44:08:04
  TRACK 26 AUDIO
    INDEX 00 44:13:69
    INDEX 01 44:15:69
  TRACK 27 AUDIO
    INDEX 00 44:32:56
    INDEX 01 44:34:56
  TRACK 28 AUDIO
    INDEX 00 44:40:63
    INDEX 01 44:42:63
  TRACK 29 AUDIO
    INDEX 00 44:51:24
    INDEX 01 44:53:24
  TRACK 30 AUDIO
    INDEX 00 45:00:12
    INDEX 01 45:02:12
  TRACK 31 AUDIO
    INDEX 00 45:21:21
    INDEX 01 45:23:21
  TRACK 32 AUDIO
    INDEX 00 45:32:18
    INDEX 01 45:34:18
  TRACK 33 AUDIO
    INDEX 00 45:41:03
    INDEX 01 45:43:03
  TRACK 34 AUDIO
    INDEX 00 45:50:35
    INDEX 01 45:52:35
  TRACK 35 AUDIO
    INDEX 00 46:10:33
    INDEX 01 46:12:33
  TRACK 36 AUDIO
    INDEX 00 46:22:16
    INDEX 01 46:24:16
  TRACK 37 AUDIO
    INDEX 00 46:33:62
    INDEX 01 46:35:62
  TRACK 38 AUDIO
    INDEX 00 46:40:02
    INDEX 01 46:42:02
  TRACK 39 AUDIO
    INDEX 00 46:59:19
    INDEX 01 47:01:19
  TRACK 40 AUDIO
    INDEX 00 47:12:28
    INDEX 01 47:14:28
  TRACK 41 AUDIO
    INDEX 00 47:28:68
    INDEX 01 47:30:68
  TRACK 42 AUDIO
    INDEX 00 47:40:20
    INDEX 01 47:42:20
  TRACK 43 AUDIO
    INDEX 00 47:47:09
    INDEX 01 47:49:09
  TRACK 44 AUDIO
    INDEX 00 47:53:64
    INDEX 01 47:55:64
  TRACK 45 AUDIO
    INDEX 00 49:54:05
    INDEX 01 49:56:05
  TRACK 46 AUDIO
    INDEX 00 51:59:11
    INDEX 01 52:01:11
  TRACK 47 AUDIO
    INDEX 00 54:15:14
    INDEX 01 54:17:14
  TRACK 48 AUDIO
    INDEX 00 56:11:13
    INDEX 01 56:13:13
  TRACK 49 AUDIO
    INDEX 00 58:15:49
    INDEX 01 58:17:49
  TRACK 50 AUDIO
    INDEX 00 60:15:07
    INDEX 01 60:17:07
  TRACK 51 AUDIO
    INDEX 00 60:35:17
    INDEX 01 60:37:17
  TRACK 52 AUDIO
    INDEX 00 60:56:34
    INDEX 01 60:58:34
REM LEADOUT 63:58:35
